<mxfile host="app.diagrams.net" modified="2023-06-21T23:30:48.513Z" agent="Mozilla/5.0 (X11; Linux x86_64; rv:109.0) Gecko/20100101 Firefox/112.0" etag="56LI1S3hDThBWnw3rABq" version="21.2.9" type="device">
  <diagram name="Page-1" id="sefj8QKXKj8pSm4CFbJb">
    <mxGraphModel dx="2537" dy="2031" grid="1" gridSize="10" guides="1" tooltips="1" connect="1" arrows="1" fold="1" page="1" pageScale="1" pageWidth="850" pageHeight="1100" math="0" shadow="0">
      <root>
        <mxCell id="0" />
        <mxCell id="1" parent="0" />
        <mxCell id="uazq_je97DUB4TgjZPLj-65" style="edgeStyle=orthogonalEdgeStyle;rounded=0;orthogonalLoop=1;jettySize=auto;html=1;" edge="1" parent="1" source="uazq_je97DUB4TgjZPLj-2">
          <mxGeometry relative="1" as="geometry">
            <mxPoint x="415" y="325" as="targetPoint" />
          </mxGeometry>
        </mxCell>
        <mxCell id="uazq_je97DUB4TgjZPLj-2" value="&lt;b&gt;Automated Software Testing&lt;/b&gt;" style="swimlane;fontStyle=0;childLayout=stackLayout;horizontal=1;startSize=30;horizontalStack=0;resizeParent=1;resizeParentMax=0;resizeLast=0;collapsible=1;marginBottom=0;whiteSpace=wrap;html=1;fillColor=#dae8fc;strokeColor=#6c8ebf;" vertex="1" parent="1">
          <mxGeometry x="330" y="370" width="170" height="130" as="geometry" />
        </mxCell>
        <mxCell id="uazq_je97DUB4TgjZPLj-3" value="&lt;ul&gt;&lt;li&gt;&lt;span style=&quot;background-color: rgb(151, 208, 119);&quot;&gt;RL policy check&lt;/span&gt;&lt;/li&gt;&lt;/ul&gt;" style="text;strokeColor=none;fillColor=#e1d5e7;align=left;verticalAlign=middle;spacingLeft=4;spacingRight=4;overflow=hidden;points=[[0,0.5],[1,0.5]];portConstraint=eastwest;rotatable=0;whiteSpace=wrap;html=1;" vertex="1" parent="uazq_je97DUB4TgjZPLj-2">
          <mxGeometry y="30" width="170" height="30" as="geometry" />
        </mxCell>
        <mxCell id="uazq_je97DUB4TgjZPLj-4" value="&lt;ul&gt;&lt;li&gt;&lt;span style=&quot;background-color: rgb(151, 208, 119);&quot;&gt;Generate test users&lt;/span&gt;&lt;/li&gt;&lt;/ul&gt;" style="text;strokeColor=none;fillColor=#e1d5e7;align=left;verticalAlign=middle;spacingLeft=4;spacingRight=4;overflow=hidden;points=[[0,0.5],[1,0.5]];portConstraint=eastwest;rotatable=0;whiteSpace=wrap;html=1;" vertex="1" parent="uazq_je97DUB4TgjZPLj-2">
          <mxGeometry y="60" width="170" height="30" as="geometry" />
        </mxCell>
        <mxCell id="uazq_je97DUB4TgjZPLj-5" value="&lt;ul&gt;&lt;li&gt;&lt;span style=&quot;background-color: rgb(234, 107, 102);&quot;&gt;(reach) Run unit tests&lt;/span&gt;&lt;/li&gt;&lt;/ul&gt;" style="text;strokeColor=none;fillColor=#e1d5e7;align=left;verticalAlign=middle;spacingLeft=4;spacingRight=4;overflow=hidden;points=[[0,0.5],[1,0.5]];portConstraint=eastwest;rotatable=0;whiteSpace=wrap;html=1;" vertex="1" parent="uazq_je97DUB4TgjZPLj-2">
          <mxGeometry y="90" width="170" height="40" as="geometry" />
        </mxCell>
        <mxCell id="uazq_je97DUB4TgjZPLj-10" style="edgeStyle=orthogonalEdgeStyle;rounded=0;orthogonalLoop=1;jettySize=auto;html=1;entryX=0;entryY=0.5;entryDx=0;entryDy=0;" edge="1" parent="1" source="uazq_je97DUB4TgjZPLj-6" target="uazq_je97DUB4TgjZPLj-4">
          <mxGeometry relative="1" as="geometry" />
        </mxCell>
        <mxCell id="uazq_je97DUB4TgjZPLj-6" value="&lt;b&gt;Policy Integration&lt;br&gt;&lt;/b&gt;" style="swimlane;fontStyle=0;childLayout=stackLayout;horizontal=1;startSize=30;horizontalStack=0;resizeParent=1;resizeParentMax=0;resizeLast=0;collapsible=1;marginBottom=0;whiteSpace=wrap;html=1;fillColor=#dae8fc;strokeColor=#6c8ebf;" vertex="1" parent="1">
          <mxGeometry x="80" y="280" width="170" height="80" as="geometry" />
        </mxCell>
        <mxCell id="uazq_je97DUB4TgjZPLj-7" value="&lt;ul&gt;&lt;li&gt;&lt;span style=&quot;background-color: rgb(234, 107, 102);&quot;&gt;Add code to routes.py&lt;br&gt;&lt;/span&gt;&lt;/li&gt;&lt;/ul&gt;" style="text;strokeColor=none;fillColor=#e1d5e7;align=left;verticalAlign=middle;spacingLeft=4;spacingRight=4;overflow=hidden;points=[[0,0.5],[1,0.5]];portConstraint=eastwest;rotatable=0;whiteSpace=wrap;html=1;" vertex="1" parent="uazq_je97DUB4TgjZPLj-6">
          <mxGeometry y="30" width="170" height="50" as="geometry" />
        </mxCell>
        <mxCell id="uazq_je97DUB4TgjZPLj-64" style="edgeStyle=orthogonalEdgeStyle;rounded=0;orthogonalLoop=1;jettySize=auto;html=1;" edge="1" parent="1" source="uazq_je97DUB4TgjZPLj-11">
          <mxGeometry relative="1" as="geometry">
            <mxPoint x="415" y="280" as="targetPoint" />
          </mxGeometry>
        </mxCell>
        <mxCell id="uazq_je97DUB4TgjZPLj-11" value="&lt;b&gt;Condition Assignment&lt;/b&gt;" style="swimlane;fontStyle=0;childLayout=stackLayout;horizontal=1;startSize=30;horizontalStack=0;resizeParent=1;resizeParentMax=0;resizeLast=0;collapsible=1;marginBottom=0;whiteSpace=wrap;html=1;fillColor=#dae8fc;strokeColor=#6c8ebf;" vertex="1" parent="1">
          <mxGeometry x="330" y="130" width="170" height="110" as="geometry" />
        </mxCell>
        <mxCell id="uazq_je97DUB4TgjZPLj-12" value="&lt;ul&gt;&lt;li&gt;&lt;span style=&quot;background-color: rgb(255, 217, 102);&quot;&gt;Run script&lt;br&gt;&lt;/span&gt;&lt;/li&gt;&lt;/ul&gt;" style="text;strokeColor=none;fillColor=#e1d5e7;align=left;verticalAlign=middle;spacingLeft=4;spacingRight=4;overflow=hidden;points=[[0,0.5],[1,0.5]];portConstraint=eastwest;rotatable=0;whiteSpace=wrap;html=1;" vertex="1" parent="uazq_je97DUB4TgjZPLj-11">
          <mxGeometry y="30" width="170" height="30" as="geometry" />
        </mxCell>
        <mxCell id="uazq_je97DUB4TgjZPLj-13" value="&lt;ul&gt;&lt;li&gt;&lt;span style=&quot;background-color: rgb(234, 107, 102);&quot;&gt;Upload results to PhP&lt;br&gt;&lt;/span&gt;&lt;/li&gt;&lt;/ul&gt;" style="text;strokeColor=none;fillColor=#e1d5e7;align=left;verticalAlign=middle;spacingLeft=4;spacingRight=4;overflow=hidden;points=[[0,0.5],[1,0.5]];portConstraint=eastwest;rotatable=0;whiteSpace=wrap;html=1;" vertex="1" parent="uazq_je97DUB4TgjZPLj-11">
          <mxGeometry y="60" width="170" height="50" as="geometry" />
        </mxCell>
        <mxCell id="uazq_je97DUB4TgjZPLj-15" style="edgeStyle=orthogonalEdgeStyle;rounded=0;orthogonalLoop=1;jettySize=auto;html=1;entryX=0;entryY=0.5;entryDx=0;entryDy=0;" edge="1" parent="1" source="uazq_je97DUB4TgjZPLj-7" target="uazq_je97DUB4TgjZPLj-13">
          <mxGeometry relative="1" as="geometry" />
        </mxCell>
        <mxCell id="uazq_je97DUB4TgjZPLj-20" value="&lt;b&gt;Experiment Setup&lt;br&gt;&lt;/b&gt;" style="swimlane;fontStyle=0;childLayout=stackLayout;horizontal=1;startSize=30;horizontalStack=0;resizeParent=1;resizeParentMax=0;resizeLast=0;collapsible=1;marginBottom=0;whiteSpace=wrap;html=1;fillColor=#dae8fc;strokeColor=#6c8ebf;" vertex="1" parent="1">
          <mxGeometry x="580" y="230" width="170" height="130" as="geometry" />
        </mxCell>
        <mxCell id="uazq_je97DUB4TgjZPLj-21" value="&lt;ul&gt;&lt;li&gt;&lt;span style=&quot;background-color: rgb(234, 107, 102);&quot;&gt;Run queries&lt;br&gt;&lt;/span&gt;&lt;/li&gt;&lt;/ul&gt;" style="text;strokeColor=none;fillColor=#e1d5e7;align=left;verticalAlign=middle;spacingLeft=4;spacingRight=4;overflow=hidden;points=[[0,0.5],[1,0.5]];portConstraint=eastwest;rotatable=0;whiteSpace=wrap;html=1;" vertex="1" parent="uazq_je97DUB4TgjZPLj-20">
          <mxGeometry y="30" width="170" height="30" as="geometry" />
        </mxCell>
        <mxCell id="uazq_je97DUB4TgjZPLj-22" value="&lt;ul&gt;&lt;li&gt;&lt;span style=&quot;background-color: rgb(234, 107, 102);&quot;&gt;Clean tables&lt;br&gt;&lt;/span&gt;&lt;/li&gt;&lt;/ul&gt;" style="text;strokeColor=none;fillColor=#e1d5e7;align=left;verticalAlign=middle;spacingLeft=4;spacingRight=4;overflow=hidden;points=[[0,0.5],[1,0.5]];portConstraint=eastwest;rotatable=0;whiteSpace=wrap;html=1;" vertex="1" parent="uazq_je97DUB4TgjZPLj-20">
          <mxGeometry y="60" width="170" height="30" as="geometry" />
        </mxCell>
        <mxCell id="uazq_je97DUB4TgjZPLj-23" value="&lt;ul&gt;&lt;li&gt;&lt;span style=&quot;background-color: rgb(234, 107, 102);&quot;&gt;Back ups&lt;br&gt;&lt;/span&gt;&lt;/li&gt;&lt;/ul&gt;" style="text;strokeColor=none;fillColor=#e1d5e7;align=left;verticalAlign=middle;spacingLeft=4;spacingRight=4;overflow=hidden;points=[[0,0.5],[1,0.5]];portConstraint=eastwest;rotatable=0;whiteSpace=wrap;html=1;" vertex="1" parent="uazq_je97DUB4TgjZPLj-20">
          <mxGeometry y="90" width="170" height="40" as="geometry" />
        </mxCell>
        <mxCell id="uazq_je97DUB4TgjZPLj-33" style="edgeStyle=orthogonalEdgeStyle;rounded=0;orthogonalLoop=1;jettySize=auto;html=1;entryX=1;entryY=0.5;entryDx=0;entryDy=0;strokeColor=#FF0000;endArrow=open;endFill=0;" edge="1" parent="1" source="uazq_je97DUB4TgjZPLj-31">
          <mxGeometry relative="1" as="geometry">
            <mxPoint x="500.0000000000002" y="412.5000000000001" as="targetPoint" />
          </mxGeometry>
        </mxCell>
        <mxCell id="uazq_je97DUB4TgjZPLj-34" value="&lt;i&gt;This template is essentially the same each semester.&lt;br&gt;&lt;/i&gt;" style="rounded=1;whiteSpace=wrap;html=1;arcSize=40;fontColor=#000000;fillColor=#ffffc0;strokeColor=#ff0000;" vertex="1" parent="1">
          <mxGeometry x="85" y="190" width="160" height="60" as="geometry" />
        </mxCell>
        <mxCell id="uazq_je97DUB4TgjZPLj-35" value="" style="edgeStyle=orthogonalEdgeStyle;html=1;verticalAlign=bottom;endArrow=open;endSize=8;strokeColor=#ff0000;rounded=0;" edge="1" source="uazq_je97DUB4TgjZPLj-34" parent="1">
          <mxGeometry relative="1" as="geometry">
            <mxPoint x="165" y="280" as="targetPoint" />
          </mxGeometry>
        </mxCell>
        <mxCell id="uazq_je97DUB4TgjZPLj-37" value="&lt;i&gt;Hostetter has code for generating test users.&lt;br&gt;&lt;/i&gt;" style="rounded=1;whiteSpace=wrap;html=1;arcSize=40;fontColor=#000000;fillColor=#ffffc0;strokeColor=#ff0000;" vertex="1" parent="1">
          <mxGeometry x="540" y="437.5" width="160" height="45" as="geometry" />
        </mxCell>
        <mxCell id="uazq_je97DUB4TgjZPLj-39" value="&lt;i&gt;Script is R, rewrite in Python w/ unit tests.&lt;br&gt;&lt;/i&gt;" style="rounded=1;whiteSpace=wrap;html=1;arcSize=40;fontColor=#000000;fillColor=#ffffc0;strokeColor=#ff0000;" vertex="1" parent="1">
          <mxGeometry x="335" y="50" width="160" height="60" as="geometry" />
        </mxCell>
        <mxCell id="uazq_je97DUB4TgjZPLj-40" value="" style="edgeStyle=orthogonalEdgeStyle;html=1;verticalAlign=bottom;endArrow=open;endSize=8;strokeColor=#ff0000;rounded=0;" edge="1" source="uazq_je97DUB4TgjZPLj-39" parent="1">
          <mxGeometry relative="1" as="geometry">
            <mxPoint x="415" y="130" as="targetPoint" />
          </mxGeometry>
        </mxCell>
        <mxCell id="uazq_je97DUB4TgjZPLj-41" style="edgeStyle=orthogonalEdgeStyle;rounded=0;orthogonalLoop=1;jettySize=auto;html=1;entryX=1;entryY=0.5;entryDx=0;entryDy=0;strokeColor=#FF0000;endArrow=open;endFill=0;" edge="1" parent="1">
          <mxGeometry relative="1" as="geometry">
            <mxPoint x="540" y="459.48" as="sourcePoint" />
            <mxPoint x="500.0000000000002" y="459.98000000000013" as="targetPoint" />
          </mxGeometry>
        </mxCell>
        <mxCell id="uazq_je97DUB4TgjZPLj-42" value="&lt;i&gt;Edit so operations run automatically.&lt;br&gt;&lt;/i&gt;" style="rounded=1;whiteSpace=wrap;html=1;arcSize=40;fontColor=#000000;fillColor=#ffffc0;strokeColor=#ff0000;" vertex="1" parent="1">
          <mxGeometry x="585" y="145" width="160" height="60" as="geometry" />
        </mxCell>
        <mxCell id="uazq_je97DUB4TgjZPLj-43" value="" style="edgeStyle=orthogonalEdgeStyle;html=1;verticalAlign=bottom;endArrow=open;endSize=8;strokeColor=#ff0000;rounded=0;" edge="1" source="uazq_je97DUB4TgjZPLj-42" parent="1">
          <mxGeometry relative="1" as="geometry">
            <mxPoint x="665" y="230" as="targetPoint" />
          </mxGeometry>
        </mxCell>
        <mxCell id="uazq_je97DUB4TgjZPLj-48" style="edgeStyle=orthogonalEdgeStyle;rounded=0;orthogonalLoop=1;jettySize=auto;html=1;entryX=0;entryY=0.5;entryDx=0;entryDy=0;" edge="1" parent="1" source="uazq_je97DUB4TgjZPLj-44" target="uazq_je97DUB4TgjZPLj-7">
          <mxGeometry relative="1" as="geometry" />
        </mxCell>
        <mxCell id="uazq_je97DUB4TgjZPLj-44" value="&lt;b&gt;Run InferNet&lt;br&gt;&lt;/b&gt;" style="swimlane;fontStyle=0;childLayout=stackLayout;horizontal=1;startSize=30;horizontalStack=0;resizeParent=1;resizeParentMax=0;resizeLast=0;collapsible=1;marginBottom=0;whiteSpace=wrap;html=1;fillColor=#dae8fc;strokeColor=#6c8ebf;" vertex="1" parent="1">
          <mxGeometry x="-130" y="270" width="170" height="130" as="geometry" />
        </mxCell>
        <mxCell id="uazq_je97DUB4TgjZPLj-45" value="&lt;ul&gt;&lt;li&gt;&lt;span style=&quot;background-color: rgb(255, 217, 102);&quot;&gt;Problem-level&lt;/span&gt;&lt;/li&gt;&lt;/ul&gt;" style="text;strokeColor=none;fillColor=#e1d5e7;align=left;verticalAlign=middle;spacingLeft=4;spacingRight=4;overflow=hidden;points=[[0,0.5],[1,0.5]];portConstraint=eastwest;rotatable=0;whiteSpace=wrap;html=1;" vertex="1" parent="uazq_je97DUB4TgjZPLj-44">
          <mxGeometry y="30" width="170" height="30" as="geometry" />
        </mxCell>
        <mxCell id="uazq_je97DUB4TgjZPLj-46" value="&lt;ul&gt;&lt;li&gt;&lt;span style=&quot;background-color: rgb(255, 217, 102);&quot;&gt;Problem- to step-level&lt;br&gt;&lt;/span&gt;&lt;/li&gt;&lt;/ul&gt;" style="text;strokeColor=none;fillColor=#e1d5e7;align=left;verticalAlign=middle;spacingLeft=4;spacingRight=4;overflow=hidden;points=[[0,0.5],[1,0.5]];portConstraint=eastwest;rotatable=0;whiteSpace=wrap;html=1;" vertex="1" parent="uazq_je97DUB4TgjZPLj-44">
          <mxGeometry y="60" width="170" height="30" as="geometry" />
        </mxCell>
        <mxCell id="uazq_je97DUB4TgjZPLj-47" value="&lt;ul&gt;&lt;li&gt;&lt;span style=&quot;background-color: rgb(255, 217, 102);&quot;&gt;Step-level&lt;/span&gt;&lt;/li&gt;&lt;/ul&gt;" style="text;strokeColor=none;fillColor=#e1d5e7;align=left;verticalAlign=middle;spacingLeft=4;spacingRight=4;overflow=hidden;points=[[0,0.5],[1,0.5]];portConstraint=eastwest;rotatable=0;whiteSpace=wrap;html=1;" vertex="1" parent="uazq_je97DUB4TgjZPLj-44">
          <mxGeometry y="90" width="170" height="40" as="geometry" />
        </mxCell>
        <mxCell id="uazq_je97DUB4TgjZPLj-49" value="&lt;i&gt;Rewrite in PyTorch w/ unit tests &amp;amp; d3rlpy. Remove hard-coded values.&lt;br&gt;&lt;/i&gt;" style="rounded=1;whiteSpace=wrap;html=1;arcSize=40;fontColor=#000000;fillColor=#ffffc0;strokeColor=#ff0000;" vertex="1" parent="1">
          <mxGeometry x="-125" y="190" width="160" height="60" as="geometry" />
        </mxCell>
        <mxCell id="uazq_je97DUB4TgjZPLj-50" value="" style="edgeStyle=orthogonalEdgeStyle;html=1;verticalAlign=bottom;endArrow=open;endSize=8;strokeColor=#ff0000;rounded=0;" edge="1" source="uazq_je97DUB4TgjZPLj-49" parent="1">
          <mxGeometry relative="1" as="geometry">
            <mxPoint x="-45" y="270" as="targetPoint" />
          </mxGeometry>
        </mxCell>
        <mxCell id="uazq_je97DUB4TgjZPLj-52" value="&lt;h1&gt;The Proposed Pre-Processing Pipeline&lt;br&gt;&lt;/h1&gt;&lt;p&gt;Most code to enable this already exists. However, it is scattered across different locations and decoupled from each other, with hard-coded values, repeating code, etc., where manual monitoring and editing are always required each semester. The goal is to collect this code so that it uses a consistent framework and can be easily run semester-to-semester, with minimal human intervention. &lt;br&gt;&lt;/p&gt;" style="text;html=1;strokeColor=none;fillColor=none;spacing=5;spacingTop=-20;whiteSpace=wrap;overflow=hidden;rounded=0;" vertex="1" parent="1">
          <mxGeometry x="-540" y="20" width="590" height="120" as="geometry" />
        </mxCell>
        <mxCell id="uazq_je97DUB4TgjZPLj-83" style="edgeStyle=orthogonalEdgeStyle;rounded=0;orthogonalLoop=1;jettySize=auto;html=1;entryX=0;entryY=0.5;entryDx=0;entryDy=0;" edge="1" parent="1" source="uazq_je97DUB4TgjZPLj-55" target="uazq_je97DUB4TgjZPLj-81">
          <mxGeometry relative="1" as="geometry" />
        </mxCell>
        <mxCell id="uazq_je97DUB4TgjZPLj-55" value="Configuration File (.yaml)" style="shape=note;size=20;whiteSpace=wrap;html=1;fillColor=#ffe6cc;strokeColor=#d79b00;" vertex="1" parent="1">
          <mxGeometry x="-530" y="310" width="100" height="100" as="geometry" />
        </mxCell>
        <mxCell id="uazq_je97DUB4TgjZPLj-93" style="edgeStyle=orthogonalEdgeStyle;rounded=0;orthogonalLoop=1;jettySize=auto;html=1;strokeColor=#FF0000;endArrow=open;endFill=0;" edge="1" parent="1" source="uazq_je97DUB4TgjZPLj-59" target="uazq_je97DUB4TgjZPLj-55">
          <mxGeometry relative="1" as="geometry" />
        </mxCell>
        <mxCell id="uazq_je97DUB4TgjZPLj-59" value="&lt;i&gt;Rather than repeat hard-coded values, edit it within a single source.&lt;br&gt;&lt;/i&gt;" style="rounded=1;whiteSpace=wrap;html=1;arcSize=40;fontColor=#000000;fillColor=#ffffc0;strokeColor=#ff0000;" vertex="1" parent="1">
          <mxGeometry x="-560" y="230" width="160" height="60" as="geometry" />
        </mxCell>
        <mxCell id="uazq_je97DUB4TgjZPLj-76" style="edgeStyle=orthogonalEdgeStyle;rounded=0;orthogonalLoop=1;jettySize=auto;html=1;entryX=-0.001;entryY=0.353;entryDx=0;entryDy=0;entryPerimeter=0;" edge="1" parent="1" source="uazq_je97DUB4TgjZPLj-73" target="uazq_je97DUB4TgjZPLj-22">
          <mxGeometry relative="1" as="geometry" />
        </mxCell>
        <mxCell id="uazq_je97DUB4TgjZPLj-73" value="&lt;i&gt;Pause until testing is complete&lt;/i&gt;" style="shape=delay;whiteSpace=wrap;html=1;fillColor=#f8cecc;strokeColor=#b85450;" vertex="1" parent="1">
          <mxGeometry x="355" y="280" width="120" height="40" as="geometry" />
        </mxCell>
        <mxCell id="uazq_je97DUB4TgjZPLj-75" value="&lt;b&gt;Phase 1&lt;/b&gt;" style="shape=umlFrame;whiteSpace=wrap;html=1;pointerEvents=0;" vertex="1" parent="1">
          <mxGeometry x="-600" y="-10" width="1430" height="650" as="geometry" />
        </mxCell>
        <mxCell id="uazq_je97DUB4TgjZPLj-82" style="edgeStyle=orthogonalEdgeStyle;rounded=0;orthogonalLoop=1;jettySize=auto;html=1;entryX=0;entryY=0.5;entryDx=0;entryDy=0;" edge="1" parent="1" source="uazq_je97DUB4TgjZPLj-80" target="uazq_je97DUB4TgjZPLj-46">
          <mxGeometry relative="1" as="geometry" />
        </mxCell>
        <mxCell id="uazq_je97DUB4TgjZPLj-80" value="&lt;b&gt;Data Pre-Processing&lt;br&gt;&lt;/b&gt;" style="swimlane;fontStyle=0;childLayout=stackLayout;horizontal=1;startSize=30;horizontalStack=0;resizeParent=1;resizeParentMax=0;resizeLast=0;collapsible=1;marginBottom=0;whiteSpace=wrap;html=1;fillColor=#dae8fc;strokeColor=#6c8ebf;" vertex="1" parent="1">
          <mxGeometry x="-340" y="300" width="170" height="90" as="geometry" />
        </mxCell>
        <mxCell id="uazq_je97DUB4TgjZPLj-81" value="&lt;ul&gt;&lt;li&gt;&lt;span style=&quot;background-color: rgb(151, 208, 119);&quot;&gt;InferNet requires specific data format&lt;br&gt;&lt;/span&gt;&lt;/li&gt;&lt;/ul&gt;" style="text;strokeColor=none;fillColor=#e1d5e7;align=left;verticalAlign=middle;spacingLeft=4;spacingRight=4;overflow=hidden;points=[[0,0.5],[1,0.5]];portConstraint=eastwest;rotatable=0;whiteSpace=wrap;html=1;" vertex="1" parent="uazq_je97DUB4TgjZPLj-80">
          <mxGeometry y="30" width="170" height="60" as="geometry" />
        </mxCell>
        <mxCell id="uazq_je97DUB4TgjZPLj-87" value="&lt;i&gt;We have code already. Right now, it exists separately.&lt;br&gt;&lt;/i&gt;" style="rounded=1;whiteSpace=wrap;html=1;arcSize=40;fontColor=#000000;fillColor=#ffffc0;strokeColor=#ff0000;" vertex="1" parent="1">
          <mxGeometry x="-335" y="220" width="160" height="60" as="geometry" />
        </mxCell>
        <mxCell id="uazq_je97DUB4TgjZPLj-88" value="" style="edgeStyle=orthogonalEdgeStyle;html=1;verticalAlign=bottom;endArrow=open;endSize=8;strokeColor=#ff0000;rounded=0;" edge="1" parent="1" source="uazq_je97DUB4TgjZPLj-87">
          <mxGeometry relative="1" as="geometry">
            <mxPoint x="-255" y="300" as="targetPoint" />
          </mxGeometry>
        </mxCell>
        <mxCell id="uazq_je97DUB4TgjZPLj-89" value="Data Pre-Processing (Current Main Goal)" style="swimlane;fillColor=#60a917;strokeColor=#2D7600;fontColor=#ffffff;gradientColor=none;shadow=0;" vertex="1" parent="1">
          <mxGeometry x="-580" y="152.5" width="640" height="467.5" as="geometry" />
        </mxCell>
        <mxCell id="uazq_je97DUB4TgjZPLj-90" value="Policy Preparation (Secondary Goal)" style="swimlane;fillColor=#1ba1e2;strokeColor=#006EAF;fontColor=#ffffff;shadow=0;" vertex="1" parent="1">
          <mxGeometry x="60" y="10" width="470" height="610" as="geometry" />
        </mxCell>
        <mxCell id="uazq_je97DUB4TgjZPLj-94" value="The Policy Preparation stage integrates policies with the Pyrenees platform.&amp;nbsp; Each semester, RL-induced policies are created that follow the same overall workflow. This stage would provide an official and tested blueprint/template to follow so that new lab members can have confidence in their policy deployment &lt;i&gt;before human testing&lt;/i&gt;. Manual debugging or testing of policies can take hours or days. Here, we would provide a ready-to-use code template in the Policy Integration process." style="text;html=1;strokeColor=none;fillColor=none;align=left;verticalAlign=middle;whiteSpace=wrap;rounded=0;" vertex="1" parent="uazq_je97DUB4TgjZPLj-90">
          <mxGeometry x="10" y="500" width="450" height="110" as="geometry" />
        </mxCell>
        <mxCell id="uazq_je97DUB4TgjZPLj-91" value="Experiment Preparation (Optional Goal)" style="swimlane;fillColor=#d80073;strokeColor=#A50040;fontColor=#ffffff;shadow=0;" vertex="1" parent="1">
          <mxGeometry x="530" y="10" width="280" height="610" as="geometry" />
        </mxCell>
        <mxCell id="uazq_je97DUB4TgjZPLj-95" value="The Experiment Preparation stage is an optional, nice-to-have feature that would ensure that all necessary steps prior to the launch of the lab are executed, such as cleaning the SQL tables for us. It would not execute until the Policy Preparation stage is complete." style="text;html=1;strokeColor=none;fillColor=none;align=left;verticalAlign=middle;whiteSpace=wrap;rounded=0;" vertex="1" parent="uazq_je97DUB4TgjZPLj-91">
          <mxGeometry x="10" y="500" width="260" height="110" as="geometry" />
        </mxCell>
        <mxCell id="uazq_je97DUB4TgjZPLj-31" value="&lt;i&gt;Dr. Lynch wrote code for RL policy check.&lt;br&gt;&lt;/i&gt;" style="rounded=1;whiteSpace=wrap;html=1;arcSize=40;fontColor=#000000;fillColor=#ffffc0;strokeColor=#ff0000;" vertex="1" parent="uazq_je97DUB4TgjZPLj-91">
          <mxGeometry x="10" y="380" width="160" height="45" as="geometry" />
        </mxCell>
        <mxCell id="uazq_je97DUB4TgjZPLj-92" value="&lt;div align=&quot;left&quot;&gt;The development of a consistent Data Pre-Processing stage will significantly reduce experiment setup time, and the code we need to do so is readily available, making it the &quot;low-hanging fruit&quot; of the pipeline. Every semester, InferNet code must be re-edited to run on the latest training data and has several hard-coded values strewn across the code, such as explicit column order/splicing. This makes it fragile to more recent data where the column order has changed, or the logged columns differ from past semesters. Further, it is also implemented across several files, about 5-6, with an unclear ordering and has repetitive code - this means semester edits must be made across 5-6 files rather than a single point. It also does not use the GPU of machines and is not immediately ready for using the ARC cluster.&lt;br&gt;&lt;/div&gt;&lt;div align=&quot;left&quot;&gt;&lt;br&gt;&lt;/div&gt;&lt;div align=&quot;left&quot;&gt;Preparing and running InferNet each semester takes about 1-2 weeks of consistent editing and monitoring. This was a significant delay during the Spring 2023 experiment study, making it an utmost priority.&lt;br&gt;&lt;/div&gt;" style="text;html=1;strokeColor=none;fillColor=none;align=center;verticalAlign=middle;whiteSpace=wrap;rounded=0;" vertex="1" parent="1">
          <mxGeometry x="-570" y="437.5" width="620" height="182.5" as="geometry" />
        </mxCell>
      </root>
    </mxGraphModel>
  </diagram>
</mxfile>
